<?xml version="1.0" encoding="UTF-8"?>
<svg xmlns="http://www.w3.org/2000/svg" version="1.1" width="500" height="500" viewBox="0 0 500 500"><rect x="0" y="0" width="500" height="500" fill="#ffffff"/><g transform="scale(16.129)"><g transform="translate(1,1)"><g><g transform="translate(3.5,3.5)"><path fill-rule="evenodd" d="M-3.5 -3.5L3.5 -3.5L3.5 3.5L-3.5 3.5ZM-2.5 -2.5L-2.5 2.5L2.5 2.5L2.5 -2.5Z" fill="#000000"/><path fill-rule="evenodd" d="M-1.5 -1.5L1.5 -1.5L1.5 1.5L-1.5 1.5Z" fill="#000000"/></g></g><g><g transform="translate(25.5,3.5)"><g transform="rotate(90)"><path fill-rule="evenodd" d="M-3.5 -3.5L3.5 -3.5L3.5 3.5L-3.5 3.5ZM-2.5 -2.5L-2.5 2.5L2.5 2.5L2.5 -2.5Z" fill="#000000"/><path fill-rule="evenodd" d="M-1.5 -1.5L1.5 -1.5L1.5 1.5L-1.5 1.5Z" fill="#000000"/></g></g></g><g><g transform="translate(3.5,25.5)"><g transform="rotate(-90)"><path fill-rule="evenodd" d="M-3.5 -3.5L3.5 -3.5L3.5 3.5L-3.5 3.5ZM-2.5 -2.5L-2.5 2.5L2.5 2.5L2.5 -2.5Z" fill="#000000"/><path fill-rule="evenodd" d="M-1.5 -1.5L1.5 -1.5L1.5 1.5L-1.5 1.5Z" fill="#000000"/></g></g></g><path fill-rule="evenodd" d="M12 0L12 1L13 1L13 2L12 2L12 3L13 3L13 4L14 4L14 3L13 3L13 2L17 2L17 4L16 4L16 3L15 3L15 5L12 5L12 8L11 8L11 9L12 9L12 8L13 8L13 6L14 6L14 7L15 7L15 6L16 6L16 7L17 7L17 8L18 8L18 9L19 9L19 8L20 8L20 9L21 9L21 6L20 6L20 7L19 7L19 6L18 6L18 5L17 5L17 4L18 4L18 3L20 3L20 4L19 4L19 5L20 5L20 4L21 4L21 2L20 2L20 0L19 0L19 1L16 1L16 0L15 0L15 1L13 1L13 0ZM10 1L10 4L9 4L9 2L8 2L8 8L10 8L10 7L11 7L11 5L10 5L10 4L11 4L11 1ZM9 6L9 7L10 7L10 6ZM17 6L17 7L18 7L18 6ZM0 8L0 10L1 10L1 11L2 11L2 12L0 12L0 16L3 16L3 17L0 17L0 21L1 21L1 18L3 18L3 17L4 17L4 18L5 18L5 19L2 19L2 20L3 20L3 21L4 21L4 20L6 20L6 21L7 21L7 20L8 20L8 22L9 22L9 23L8 23L8 27L10 27L10 28L8 28L8 29L10 29L10 28L11 28L11 27L12 27L12 26L13 26L13 27L14 27L14 28L13 28L13 29L14 29L14 28L15 28L15 29L16 29L16 28L15 28L15 27L14 27L14 25L15 25L15 26L16 26L16 27L18 27L18 28L17 28L17 29L20 29L20 27L18 27L18 26L19 26L19 25L20 25L20 26L21 26L21 27L22 27L22 26L21 26L21 25L23 25L23 27L24 27L24 25L25 25L25 23L26 23L26 25L29 25L29 23L27 23L27 22L28 22L28 20L29 20L29 19L27 19L27 18L26 18L26 17L25 17L25 15L27 15L27 16L29 16L29 14L28 14L28 13L27 13L27 14L26 14L26 13L24 13L24 14L23 14L23 13L22 13L22 12L23 12L23 11L20 11L20 10L17 10L17 9L16 9L16 8L14 8L14 9L15 9L15 11L17 11L17 13L16 13L16 12L15 12L15 13L16 13L16 14L14 14L14 13L13 13L13 12L12 12L12 11L13 11L13 10L11 10L11 11L10 11L10 12L12 12L12 13L11 13L11 14L10 14L10 13L9 13L9 10L6 10L6 11L8 11L8 12L5 12L5 13L7 13L7 14L6 14L6 15L5 15L5 16L4 16L4 15L3 15L3 14L2 14L2 12L3 12L3 9L7 9L7 8L2 8L2 9L1 9L1 8ZM22 8L22 9L23 9L23 10L24 10L24 9L25 9L25 11L24 11L24 12L26 12L26 11L27 11L27 10L28 10L28 9L27 9L27 8ZM26 9L26 10L27 10L27 9ZM4 10L4 11L5 11L5 10ZM28 11L28 12L29 12L29 11ZM18 12L18 13L17 13L17 14L16 14L16 15L14 15L14 16L13 16L13 14L12 14L12 15L11 15L11 16L10 16L10 15L9 15L9 16L10 16L10 19L8 19L8 20L11 20L11 21L10 21L10 22L11 22L11 23L9 23L9 25L10 25L10 27L11 27L11 26L12 26L12 25L10 25L10 24L13 24L13 25L14 25L14 24L16 24L16 23L17 23L17 25L16 25L16 26L18 26L18 25L19 25L19 23L17 23L17 22L20 22L20 20L19 20L19 19L23 19L23 18L24 18L24 19L25 19L25 20L27 20L27 19L25 19L25 18L24 18L24 17L23 17L23 18L22 18L22 16L21 16L21 17L20 17L20 16L19 16L19 15L17 15L17 14L20 14L20 15L23 15L23 14L22 14L22 13L21 13L21 12ZM20 13L20 14L21 14L21 13ZM1 14L1 15L2 15L2 14ZM7 14L7 15L6 15L6 16L5 16L5 18L8 18L8 17L6 17L6 16L7 16L7 15L8 15L8 14ZM24 14L24 15L25 15L25 14ZM16 15L16 16L14 16L14 17L18 17L18 18L15 18L15 19L14 19L14 20L15 20L15 21L13 21L13 22L12 22L12 23L13 23L13 24L14 24L14 23L16 23L16 22L17 22L17 21L18 21L18 20L17 20L17 21L16 21L16 20L15 20L15 19L19 19L19 18L20 18L20 17L18 17L18 16L17 16L17 15ZM11 16L11 17L13 17L13 16ZM11 18L11 20L13 20L13 18ZM6 19L6 20L7 20L7 19ZM21 21L21 24L24 24L24 21ZM25 21L25 22L27 22L27 21ZM22 22L22 23L23 23L23 22ZM26 26L26 27L25 27L25 28L24 28L24 29L27 29L27 27L28 27L28 28L29 28L29 27L28 27L28 26ZM21 28L21 29L23 29L23 28Z" fill="#000000"/></g></g></svg>
